# xmcd
# 
# Track frame offsets:
#     150
#     20416
#     34277
#     49970
#     68656
#     84094
#     103927
#     121971
#     140324
#     156152
#     176919
#     189822
#     209516
#     227370
#     246394
# 
# Disc length: 3510
# 
# Revision: 1
# Processed by: cddbd v1.5.2PL0 Copyright (c) Steve Scherf et al.
# Submitted via: fre:ac v1.0.17
# 
DISCID=c90db40f
DTITLE=Eric Dodge - Unplugged journey
DYEAR=2011
DGENRE=Country
TTITLE0=Since I Let You Go
TTITLE1=It Ain't Love
TTITLE2=When I Was Your Age
TTITLE3=Why Not Today
TTITLE4=Womans World
TTITLE5=The Last Real Cowboy
TTITLE6=I Pledge
TTITLE7=Home To Me
TTITLE8=That Kind Of Country Song
TTITLE9=Hme Of The Brave
TTITLE10=In The Country
TTITLE11=Heaven In Her Smile
TTITLE12=A Christmas Wish
TTITLE13=Angels Among Us 
TTITLE14=Bring Him Hhome
EXTD=YEAR: 2011
EXTT0=
EXTT1=
EXTT2=
EXTT3=
EXTT4=
EXTT5=
EXTT6=
EXTT7=
EXTT8=
EXTT9=
EXTT10=
EXTT11=
EXTT12=
EXTT13=
EXTT14=
PLAYORDER=
